<?xml version="1.0" encoding="UTF-8" standalone="no"?>
<!-- Created with Inkscape (http://www.inkscape.org/) -->

<svg
   xmlns:dc="http://purl.org/dc/elements/1.1/"
   xmlns:cc="http://creativecommons.org/ns#"
   xmlns:rdf="http://www.w3.org/1999/02/22-rdf-syntax-ns#"
   xmlns:svg="http://www.w3.org/2000/svg"
   xmlns="http://www.w3.org/2000/svg"
   xmlns:sodipodi="http://sodipodi.sourceforge.net/DTD/sodipodi-0.dtd"
   xmlns:inkscape="http://www.inkscape.org/namespaces/inkscape"
   width="299"
   height="162"
   viewBox="0 0 79.110415 42.862602"
   version="1.1"
   id="svg8"
   inkscape:version="0.92.1 r15371"
   sodipodi:docname="nav-right.svg">
  <defs
     id="defs2" />
  <sodipodi:namedview
     id="base"
     pagecolor="#ffffff"
     bordercolor="#666666"
     borderopacity="1.0"
     inkscape:pageopacity="0.0"
     inkscape:pageshadow="2"
     inkscape:zoom="0.7"
     inkscape:cx="290.3369"
     inkscape:cy="380.72933"
     inkscape:document-units="mm"
     inkscape:current-layer="layer1"
     showgrid="false"
     inkscape:window-width="1366"
     inkscape:window-height="705"
     inkscape:window-x="-8"
     inkscape:window-y="-8"
     inkscape:window-maximized="1"
     inkscape:measure-start="305.714,1171.43"
     inkscape:measure-end="304.286,1171.43"
     units="px" />
  <metadata
     id="metadata5">
    <rdf:RDF>
      <cc:Work
         rdf:about="">
        <dc:format>image/svg+xml</dc:format>
        <dc:type
           rdf:resource="http://purl.org/dc/dcmitype/StillImage" />
        <dc:title></dc:title>
      </cc:Work>
    </rdf:RDF>
  </metadata>
  <g
     inkscape:label="Layer 1"
     inkscape:groupmode="layer"
     id="layer1"
     transform="translate(0,-254.13737)">
    <path
       style="fill:none;stroke:#22354e;stroke-width:0.26458332px;stroke-linecap:butt;stroke-linejoin:miter;stroke-opacity:1"
       d="M 72.232761,255.62061 H 0.79526178 l 4.72470242,6.23661 H 77.051958 Z"
       id="path3707"
       inkscape:connector-curvature="0" />
    <path
       style="fill:none;stroke:#000000;stroke-width:0.26458332px;stroke-linecap:butt;stroke-linejoin:miter;stroke-opacity:1"
       d="m 23.14303,273.1019 4.724776,6.33139 h 50.790697 l -4.677749,-6.33139 z"
       id="path4524"
       inkscape:connector-curvature="0" />
    <path
       style="fill:none;stroke:#000000;stroke-width:0.26458332px;stroke-linecap:butt;stroke-linejoin:miter;stroke-opacity:1"
       d="m 42.183653,290.48892 h 30.143601 l 4.724704,6.37834 -30.19085,-0.0473 z"
       id="path4530"
       inkscape:connector-curvature="0" />
    <path
       style="stroke:#22354e;stroke-width:0.1889881;stroke-opacity:1"
       d="m 61.174868,296.59307 -14.268601,-0.0533 -1.547071,-2.12122 c -0.850887,-1.16667 -1.814997,-2.48266 -2.142464,-2.92442 l -0.595397,-0.8032 14.804668,0.006 14.804667,0.006 2.218955,3.01829 2.218949,3.01828 -0.612553,-0.0461 c -0.336904,-0.0253 -7.033424,-0.07 -14.881153,-0.0994 z"
       id="path4540"
       inkscape:connector-curvature="0" />
    <path
       style="stroke:#22354e;stroke-width:0.1889881;stroke-opacity:1"
       d="m 25.760135,276.23261 -2.199301,-2.93001 25.175667,0.0479 25.175668,0.0479 2.136375,2.88207 2.136376,2.88207 H 53.072178 27.959436 Z"
       id="path4542"
       inkscape:connector-curvature="0" />
    <path
       style="fill:#22354e;fill-opacity:1;stroke:#22354e;stroke-width:0.1889881;stroke-opacity:1"
       d="m 4.7167849,260.40554 c -1.5687764,-1.99649 -3.2621547,-4.2716 -3.2621547,-4.38281 0,-0.0581 15.9246088,-0.10127 35.3880198,-0.0959 l 35.38802,0.01 1.606399,2.09812 c 0.883521,1.15397 1.847631,2.42525 2.142466,2.82507 l 0.536067,0.72695 H 41.080256 5.6449132 Z"
       id="path4544"
       inkscape:connector-curvature="0" />
    <path
       style="fill:#22354e;fill-opacity:1;stroke:#22354e;stroke-width:0.1889881;stroke-opacity:1"
       d="m 26.028113,276.33446 c -1.094174,-1.45153 -1.989405,-2.68468 -1.989405,-2.74032 0,-0.0556 11.204631,-0.099 24.899181,-0.0963 l 24.89918,0.005 1.889882,2.56497 c 1.039434,1.41074 1.918229,2.64168 1.952876,2.73543 0.03723,0.10072 -10.107271,0.17044 -24.799655,0.17044 H 28.01752 Z"
       id="path4546"
       inkscape:connector-curvature="0" />
    <path
       style="fill:#22354e;fill-opacity:1;stroke:#22354e;stroke-width:0.1889881;stroke-opacity:1"
       d="m 56.050788,296.40783 -9.092827,-0.0509 -2.002104,-2.73853 -2.002102,-2.73853 h 14.61979 14.61979 l 2.003044,2.73674 c 1.101672,1.50521 2.003041,2.78088 2.003041,2.83483 0,0.0539 -2.487554,0.0776 -5.5279,0.0527 -3.040348,-0.025 -9.619675,-0.0683 -14.620732,-0.0963 z"
       id="path4548"
       inkscape:connector-curvature="0" />
    <path
       style="fill:#22354e;fill-opacity:1;stroke:#22354e;stroke-width:0.1889881;stroke-opacity:1"
       d="m 2.2578295,255.9809 c 0.1299295,-0.0524 0.342541,-0.0524 0.4724704,0 0.1299292,0.0524 0.023622,0.0953 -0.2362351,0.0953 -0.2598586,0 -0.3661645,-0.0429 -0.2362353,-0.0953 z"
       id="path4550"
       inkscape:connector-curvature="0" />
    <path
       style="fill:#22354e;fill-opacity:1;stroke:#22354e;stroke-width:0.1889881;stroke-opacity:1"
       d="m 3.6718541,259.04744 c -1.0635578,-1.39661 -1.9337417,-2.62402 -1.9337417,-2.7276 0,-0.10357 0.1488282,-0.22058 0.3307292,-0.26003 0.181901,-0.0394 16.0590504,-0.0664 35.2825544,-0.06 l 34.951828,0.0117 2.033614,2.64584 c 1.118489,1.45521 2.037657,2.70961 2.042594,2.78757 0.0049,0.078 -15.917156,0.14174 -35.38243,0.14174 H 5.6055962 Z"
       id="path4552"
       inkscape:connector-curvature="0" />
    <path
       style="fill:#22354e;fill-opacity:1;stroke:#22354e;stroke-width:0.1889881;stroke-opacity:1"
       d="m 5.1662083,261.20245 c -0.2453881,-0.20443 -0.3729551,-0.37451 -0.2834822,-0.37797 0.089473,-0.003 -0.038094,-0.17355 -0.2834823,-0.37798 -0.2453878,-0.20443 -0.3729548,-0.37452 -0.283482,-0.37798 0.089473,-0.003 -0.038094,-0.17354 -0.2834822,-0.37797 -0.2453878,-0.20443 -0.3945695,-0.37169 -0.3315145,-0.37169 0.063055,0 -0.4022627,-0.69715 -1.0340393,-1.54923 -1.0969225,-1.47942 -1.1301497,-1.55609 -0.737362,-1.70139 0.2262278,-0.0837 16.2428752,-0.13067 35.5925512,-0.10442 27.563709,0.0374 35.171403,0.0977 35.135859,0.27834 -0.02495,0.12683 0.126259,0.32244 0.336023,0.43471 0.209765,0.11226 0.337214,0.27558 0.283223,0.36294 -0.05399,0.0874 0.116428,0.29944 0.378707,0.47129 0.262278,0.17185 0.429254,0.3895 0.371059,0.48366 -0.05819,0.0942 0.06904,0.26479 0.282755,0.37916 0.213709,0.11437 0.341275,0.28446 0.28348,0.37798 -0.05779,0.0935 0.06977,0.2636 0.283482,0.37797 0.21371,0.11438 0.342236,0.28291 0.285615,0.37453 -0.05662,0.0916 0.08749,0.29996 0.320242,0.46299 0.232754,0.16302 0.340479,0.29924 0.239395,0.3027 -0.101084,0.004 -0.01371,0.15228 0.194183,0.33073 0.207888,0.17844 0.402968,0.47327 0.433509,0.65517 0.05273,0.31402 -1.732854,0.33041 -35.340774,0.32444 -34.9147388,-0.006 -35.4023748,-0.0114 -35.8424647,-0.37798 z"
       id="path4554"
       inkscape:connector-curvature="0" />
    <path
       style="fill:#22354e;fill-opacity:1;stroke:#22354e;stroke-width:0.1889881;stroke-opacity:1"
       d="m 4.0059694,259.94566 c -0.6756323,-0.89676 -1.1859003,-1.65815 -1.1339285,-1.69196 0.051972,-0.0338 -0.098279,-0.19651 -0.3338909,-0.36154 -0.2356117,-0.16503 -0.3826513,-0.37405 -0.3267543,-0.4645 0.055897,-0.0904 -0.048986,-0.25212 -0.2330734,-0.3593 -0.1840872,-0.10717 -0.2605074,-0.19744 -0.1698222,-0.2006 0.090685,-0.003 0.053631,-0.13979 -0.082342,-0.30363 -0.2048875,-0.24688 -0.2007592,-0.32729 0.024106,-0.46958 0.1601179,-0.10132 14.7207069,-0.17287 35.5241649,-0.17458 l 35.252834,-0.003 2.001716,2.59673 c 1.100944,1.42821 1.960438,2.70431 1.909987,2.83578 -0.07352,0.1916 -7.149783,0.23781 -35.648151,0.2328 l -35.5564234,-0.006 z"
       id="path4556"
       inkscape:connector-curvature="0" />
    <path
       style="fill:#22354e;fill-opacity:1;stroke:#22354e;stroke-width:0.02362351;stroke-opacity:1"
       d="m 1.2439864,255.97374 c -0.056781,-0.0743 -0.1171292,-0.15398 -0.1341072,-0.17717 -0.029618,-0.0405 0.448806,-0.0422 11.8058498,-0.0422 10.505778,0 11.836719,0.004 11.836719,0.0354 0,0.0313 -0.357666,0.0354 -3.076964,0.0355 -1.692328,4e-5 -6.484062,0.0133 -10.648296,0.0294 -9.1001316,0.0353 -8.2281237,0.0349 -8.3899415,0.004 -0.085805,-0.0164 -0.1786739,-0.0181 -0.2598587,-0.005 -0.069484,0.0115 -0.297666,0.0293 -0.5070713,0.0395 -0.3350307,0.0163 -0.3893558,0.0246 -0.4525335,0.0696 -0.051362,0.0366 -0.068282,0.0646 -0.059449,0.0983 0.019534,0.0747 -0.00379,0.0568 -0.1143476,-0.0878 z"
       id="path4558"
       inkscape:connector-curvature="0" />
    <path
       style="fill:#22354e;fill-opacity:1;stroke:#22354e;stroke-width:0.02362351;stroke-opacity:1"
       d="m 5.3257341,261.80793 c -0.1445573,-0.17426 -1.294764,-1.69238 -2.3133719,-3.05334 -0.3549449,-0.47424 -0.6953197,-0.92604 -0.7563888,-1.004 -0.1522412,-0.19435 -1.65709252,-2.18982 -1.67909072,-2.22652 -0.01415,-0.0236 2.40793712,-0.0295 12.07893232,-0.0295 h 12.096633 v 0.11812 0.11812 l -0.844542,0.003 c -0.464497,0.002 -1.22724,0.0111 -1.694987,0.0208 -0.791586,0.0164 -0.756434,0.0173 0.507908,0.0135 0.747093,-0.002 1.512493,0.002 1.700892,0.009 0.841145,0.0316 -0.144669,0.0446 -3.649808,0.0483 -2.039876,0.002 -3.713306,0.008 -3.718734,0.0138 -0.0054,0.005 1.724688,0.01 3.844701,0.01 h 3.85457 v 2.91762 2.91761 l -9.612761,-0.006 c -7.6880748,-0.005 -9.6078538,-1.1e-4 -9.5882528,0.0235 0.01953,0.0235 1.970978,0.0295 9.6127608,0.0295 h 9.588253 v 0.11812 0.11812 H 15.105231 5.4580136 Z m -3.9023184,-5.663 -0.062973,-0.10746 0.055517,-0.0497 0.055518,-0.0497 -0.059059,0.0358 c -0.037437,0.0227 -0.056998,0.054 -0.053432,0.0854 0.0031,0.0272 0.00201,0.0495 -0.00243,0.0495 -0.023662,0 -0.2303012,-0.28869 -0.2165371,-0.30252 0.031344,-0.0315 0.5530914,-0.0431 1.7370473,-0.0386 1.1349468,0.004 1.1544853,0.004 0.4015996,-0.0128 -1.0524667,-0.023 -2.22061,-0.0277 -2.22061,-0.009 0,0.008 0.093018,0.14002 0.2067057,0.29268 0.1995752,0.26799 0.2881831,0.32739 0.1586442,0.10635 z m 0.80992,-0.24005 c 0.029234,-0.008 0.053153,-0.0248 0.053153,-0.0377 0,-0.0135 -0.026273,-0.0168 -0.061852,-0.008 -0.034019,0.008 -0.1748444,0.0212 -0.3129463,0.0281 -0.1381016,0.007 -0.2555528,0.017 -0.2610024,0.0225 -0.01555,0.0155 0.5232265,0.0109 0.5826479,-0.005 z m 4.4235025,-0.0173 c 0.04548,-0.004 -0.826232,-0.008 -1.937128,-0.01 -1.1108957,-0.001 -2.001611,0.005 -1.9793678,0.0138 0.038073,0.0151 3.7390178,0.0111 3.9164958,-0.004 z m 0.549246,-0.0318 c -0.02923,-0.006 -0.07707,-0.006 -0.106305,0 -0.02923,0.006 -0.0053,0.0102 0.05315,0.0102 0.05847,0 0.08239,-0.005 0.05315,-0.0102 z m 0.424801,-4.5e-4 c -0.04246,-0.005 -0.106244,-0.005 -0.141741,2.4e-4 -0.0355,0.005 -7.68e-4,0.01 0.0772,0.01 0.07796,-1.3e-4 0.107001,-0.005 0.06454,-0.01 z m 0.390211,2e-4 c -0.03573,-0.005 -0.0942,-0.005 -0.12993,0 -0.03573,0.005 -0.0065,0.01 0.06496,0.01 0.07146,0 0.100695,-0.004 0.06497,-0.01 z m 0.413736,2.9e-4 c -0.02906,-0.006 -0.08221,-0.006 -0.118118,-3.2e-4 -0.03591,0.005 -0.01214,0.01 0.05283,0.0102 0.06497,1.8e-4 0.09435,-0.004 0.06529,-0.01 z m 6.1713178,-0.005 c 0.31183,-0.009 -0.480148,-0.011 -1.759952,-0.006 -1.279804,0.006 -2.331345,0.014 -2.336759,0.0188 -0.01665,0.0147 3.494349,0.003 4.096711,-0.0133 z m 0.974469,-0.0185 c -0.03573,-0.005 -0.0942,-0.005 -0.129929,0 -0.03573,0.005 -0.0065,0.01 0.06497,0.01 0.07146,0 0.100695,-0.004 0.06496,-0.01 z m -10.5242739,-0.0718 c -0.081206,-0.005 -0.2140879,-0.005 -0.2952938,0 -0.081206,0.005 -0.014764,0.008 0.1476471,0.008 0.1624115,0 0.2288526,-0.004 0.1476467,-0.008 z m 15.5915179,0 c -0.08121,-0.005 -0.214089,-0.005 -0.295294,0 -0.08121,0.005 -0.01476,0.008 0.147647,0.008 0.162411,0 0.228853,-0.004 0.147647,-0.008 z"
       id="path4560"
       inkscape:connector-curvature="0" />
    <path
       style="fill:#22354e;fill-opacity:1;stroke:#22354e;stroke-width:0.02362351;stroke-opacity:1"
       d=""
       id="path4562"
       inkscape:connector-curvature="0" />
    <path
       style="fill:#22354e;fill-opacity:1;stroke:#22354e;stroke-width:0.02362351;stroke-opacity:1"
       d=""
       id="path4564"
       inkscape:connector-curvature="0" />
    <path
       style="fill:#22354e;fill-opacity:1;stroke:#22354e;stroke-width:0.02362351;stroke-opacity:1"
       d=""
       id="path4566"
       inkscape:connector-curvature="0" />
  </g>
</svg>
